<svg width="375" height="382" viewBox="0 0 375 382" fill="none" xmlns="http://www.w3.org/2000/svg">
<path d="M374.366 157.392H367.96V231.718H374.366V157.392Z" fill="#FFBA93"/>
<path d="M195.234 239.2L193.19 237.114C182.966 236.314 167.43 232.21 157.59 220.06C157.015 219.352 156.487 218.606 156.012 217.828C155.13 216.408 154.509 214.842 154.18 213.204C152.508 204.438 161.57 198.058 165.838 197.014C171.208 195.716 180.448 197.404 184.172 198.194C185.192 198.414 185.802 198.558 185.802 198.558C186.468 198.61 187.136 198.61 187.802 198.558C188.26 198.532 188.752 198.498 189.278 198.456C189.448 198.456 189.618 198.44 189.796 198.422C189.898 198.422 189.996 198.422 190.102 198.406C192.128 198.264 194.162 198.29 196.184 198.482C196.762 198.542 197.364 198.626 197.984 198.728C198.322 198.788 198.662 198.856 199.01 198.928C199.29 198.988 199.57 199.056 199.858 199.128C200.07 199.18 200.282 199.238 200.494 199.298C200.928 199.416 201.36 199.544 201.792 199.688C201.812 199.696 201.832 199.702 201.852 199.706C202.052 199.772 202.252 199.84 202.452 199.918V199.908C205.564 201.06 208.448 202.752 210.97 204.908C213.32 206.894 215.908 208.964 218.598 211.026C222.198 213.776 225.98 216.516 229.678 219.01C229.678 219.01 231.02 219.266 233.022 219.52L233.048 219.308V194.616H282.106C290.106 211.616 302.64 242.462 311.524 267.204C320.764 292.93 350.46 337.864 356.484 352.882C363.654 370.734 363.654 380.682 363.654 380.682H258.14C258.186 376.758 257.772 372.842 256.902 369.014L260.746 351.814C257.76 351.89 253.058 351.814 253.058 351.814V351.83C252.516 351.712 249.826 351.042 238.858 348.182C222.126 343.82 185.844 298.418 185.844 298.418C182.18 296.704 175.756 288.696 171.954 283.664C170.058 281.156 168.904 278.166 168.62 275.034H168.56C168.56 275.034 149.496 272.834 139.254 269.57C139.254 269.57 122.938 265.294 118.39 263.334C118.39 263.334 89.882 252.754 82.678 248.588C75.474 244.422 78.878 226.96 93.3 231.134C101.794 233.586 109.278 236.072 109.626 236.192C112.874 238.526 116.776 239.78 120.776 239.772H141.874C141.874 239.772 166.462 245.126 171.086 246.152L171.686 246.186C172.173 243.954 172.958 241.796 174.018 239.772H194.806L195.234 239.2Z" fill="#FFBA93"/>
<path d="M357.812 181.158C357.872 181.074 357.93 180.99 357.99 180.912C357.776 183.038 356.974 185.062 355.674 186.758C354.798 188.015 353.536 188.952 352.078 189.429C350.622 189.906 349.05 189.895 347.6 189.4L342.6 195.746L337 188.636L342 182.29C341.58 180.535 341.55 178.709 341.908 176.94C342.268 175.171 343.008 173.502 344.078 172.048C345.202 170.535 346.846 169.492 348.694 169.12C348.62 169.187 348.554 169.262 348.494 169.342C347.24 171.057 346.564 173.127 346.564 175.251C346.564 177.376 347.24 179.445 348.494 181.16C349.016 181.912 349.712 182.527 350.524 182.952C351.336 183.376 352.238 183.598 353.154 183.598C354.07 183.597 354.972 183.375 355.782 182.951C356.594 182.526 357.29 181.911 357.812 181.158Z" fill="#FFCF55"/>
<path d="M353.332 206.834C354.358 208.234 354.91 209.922 354.91 211.658C354.91 213.392 354.358 215.082 353.332 216.48C352.906 217.094 352.336 217.598 351.674 217.944C351.012 218.29 350.274 218.472 349.526 218.472C348.778 218.472 348.04 218.29 347.378 217.944C346.716 217.598 346.146 217.094 345.72 216.48C344.7 215.12 344.15 213.464 344.152 211.764L344.084 211.856L336.982 202.856L331.382 195.746L326.382 189.4C324.93 189.897 323.356 189.909 321.898 189.433C320.438 188.956 319.174 188.018 318.296 186.76C317.002 185.062 316.202 183.039 315.988 180.914C316.046 180.992 316.098 181.076 316.166 181.16C316.686 181.914 317.382 182.53 318.194 182.955C319.006 183.381 319.908 183.603 320.824 183.603C321.74 183.603 322.642 183.381 323.454 182.955C324.266 182.53 324.962 181.914 325.482 181.16C326.738 179.446 327.414 177.376 327.414 175.251C327.414 173.126 326.738 171.056 325.482 169.342C325.424 169.265 325.362 169.191 325.296 169.12C327.138 169.494 328.778 170.537 329.896 172.048C330.968 173.501 331.71 175.17 332.07 176.939C332.432 178.708 332.402 180.534 331.984 182.29L336.984 188.636L342.584 195.746L349.678 204.746L349.61 204.84C350.34 204.87 351.054 205.066 351.698 205.412C352.344 205.756 352.902 206.244 353.332 206.834Z" fill="#FFCF55"/>
<path d="M331.374 195.744L336.982 202.854L334.428 206.096L331.374 195.744Z" fill="#313553"/>
<path d="M331.374 195.744L334.428 206.096L329.88 211.856L329.804 211.764C329.808 213.466 329.256 215.122 328.234 216.482C327.808 217.096 327.238 217.598 326.576 217.944C325.912 218.292 325.176 218.472 324.428 218.472C323.68 218.472 322.944 218.292 322.28 217.944C321.618 217.598 321.048 217.096 320.622 216.482C319.602 215.08 319.052 213.392 319.052 211.658C319.052 209.924 319.602 208.236 320.622 206.834C321.054 206.242 321.612 205.756 322.258 205.41C322.902 205.064 323.616 204.868 324.348 204.834L324.272 204.74L331.374 195.744Z" fill="#FFCF55"/>
<path d="M330.364 5.51611H324.254V76.4242H330.364V5.51611Z" fill="#FFBA93"/>
<path d="M301.896 39.844C302.292 40.29 302.546 40.8454 302.622 41.4372C302.698 42.0292 302.594 42.6304 302.322 43.162L301.906 43.926L298.106 50.942C298.5 51.815 298.734 52.7522 298.794 53.708C299.014 57.086 297.156 59.954 294.652 60.108C292.148 60.262 289.936 57.666 289.714 54.288C289.492 50.91 291.352 48.044 293.856 47.888C294.32 47.8562 294.784 47.9194 295.222 48.074L298.622 41.814L299.452 40.278C299.546 40.0482 299.696 39.8458 299.888 39.6898C300.08 39.5338 300.31 39.4292 300.554 39.3858C300.798 39.3426 301.05 39.3618 301.284 39.442C301.518 39.522 301.73 39.6604 301.896 39.844Z" fill="#FFCF55"/>
<path d="M282.11 194.616H233.052V104C233.052 104 240.272 106.214 249.504 122.046C258.736 137.878 273.26 176.154 281.178 192.646C281.482 193.276 281.8 193.928 282.11 194.616Z" fill="#FFBA93"/>
<path d="M253.16 351.848L253.058 351.814C253.058 351.814 257.76 351.89 260.746 351.814L256.902 369.014C255.408 360.98 253.168 352.224 253.066 351.824C253.096 351.834 253.128 351.842 253.16 351.848Z" fill="#313553"/>
<path d="M233.052 194.616V219.29L233.026 219.502C231.026 219.248 229.682 218.992 229.682 218.992C225.984 216.498 222.2 213.758 218.602 211.008L218.72 210.856C219.316 209.454 219.622 207.948 219.62 206.426V194.626L233.052 194.616Z" fill="#FFCF55"/>
<path d="M219.62 52.072V39.872C219.62 36.8486 218.418 33.9488 216.282 31.811C214.144 29.673 211.244 28.472 208.22 28.472H140.6C137.577 28.472 134.677 29.673 132.539 31.811C130.401 33.9488 129.2 36.8486 129.2 39.872V64.73C129.2 66.227 129.495 67.7094 130.068 69.0926C130.641 70.4756 131.48 71.7324 132.539 72.791C133.598 73.8496 134.854 74.6894 136.237 75.2622C137.621 75.8352 139.103 76.13 140.6 76.13H208.214C209.712 76.13 211.194 75.8352 212.576 75.2622C213.96 74.6894 215.216 73.8496 216.276 72.791C217.334 71.7324 218.174 70.4756 218.746 69.0926C219.32 67.7094 219.614 66.227 219.614 64.73L219.62 52.072ZM113.8 125.04V21.162C113.801 15.7324 115.957 10.5254 119.797 6.68599C123.636 2.84653 128.842 0.689049 134.272 0.687989H136.724C136.724 4.77869 138.349 8.70185 141.242 11.5944C144.134 14.487 148.057 16.112 152.148 16.112H190.518C194.608 16.1098 198.532 14.4844 201.424 11.5926C204.318 8.70069 205.946 4.77879 205.95 0.687989H212.57C215.26 0.687209 217.922 1.21619 220.408 2.24473C222.892 3.27327 225.15 4.78121 227.052 6.68245C228.954 8.58369 230.462 10.841 231.492 13.3254C232.522 15.8098 233.052 18.4728 233.052 21.162V194.616H219.62V181.574C219.62 178.551 218.418 175.651 216.282 173.513C214.144 171.375 211.244 170.174 208.22 170.174H140.6C137.577 170.174 134.677 171.375 132.539 173.513C130.401 175.651 129.2 178.551 129.2 181.574V206.426C129.2 209.45 130.401 212.35 132.539 214.486C134.677 216.624 137.577 217.826 140.6 217.826H156.018C156.493 218.604 157.021 219.35 157.596 220.058C167.43 232.208 182.966 236.306 193.196 237.112L195.24 239.198L194.816 239.776H134.272C128.841 239.772 123.634 237.612 119.795 233.772C115.956 229.93 113.799 224.72 113.8 219.29V125.04ZM129.216 125.04V135.578C129.216 138.601 130.417 141.501 132.555 143.639C134.693 145.777 137.593 146.978 140.616 146.978H208.23C211.254 146.978 214.154 145.777 216.292 143.639C218.428 141.501 219.63 138.601 219.63 135.578V110.726C219.63 107.703 218.428 104.803 216.292 102.665C214.154 100.527 211.254 99.326 208.23 99.326H140.6C137.577 99.326 134.677 100.527 132.539 102.665C130.401 104.803 129.2 107.703 129.2 110.726L129.216 125.04Z" fill="#FFCF55"/>
<path d="M219.62 194.616V206.416C219.622 207.938 219.316 209.444 218.72 210.846L218.602 210.998C215.912 208.936 213.324 206.866 210.974 204.88C208.452 202.724 205.568 201.032 202.456 199.88C203.23 198.538 203.684 197.034 203.784 195.488C203.886 193.942 203.628 192.392 203.034 190.962C202.44 189.53 201.526 188.254 200.36 187.233C199.194 186.212 197.81 185.472 196.312 185.071C194.816 184.671 193.246 184.62 191.726 184.922C190.206 185.225 188.776 185.873 187.548 186.817C186.318 187.76 185.322 188.974 184.636 190.364C183.951 191.754 183.594 193.282 183.594 194.832C183.595 195.974 183.793 197.108 184.178 198.184C180.454 197.394 171.214 195.706 165.844 197.004C161.576 198.048 152.514 204.428 154.186 213.194C154.516 214.832 155.136 216.398 156.018 217.818H140.6C137.577 217.818 134.677 216.616 132.539 214.478C130.401 212.342 129.2 209.442 129.2 206.418V181.574C129.2 178.55 130.401 175.651 132.539 173.513C134.677 171.375 137.577 170.174 140.6 170.174H208.214C211.238 170.174 214.138 171.375 216.276 173.513C218.412 175.651 219.614 178.55 219.614 181.574V194.616H219.62Z" fill="#FFCF55"/>
<path d="M129.2 125.04V110.726C129.2 107.702 130.401 104.803 132.539 102.665C134.677 100.527 137.577 99.326 140.6 99.326H208.214C211.238 99.326 214.138 100.527 216.276 102.665C218.412 104.803 219.614 107.702 219.614 110.726V135.578C219.614 138.601 218.412 141.501 216.276 143.639C214.138 145.777 211.238 146.978 208.214 146.978H140.6C137.577 146.978 134.677 145.777 132.539 143.639C130.401 141.501 129.2 138.601 129.2 135.578V125.04ZM162.088 125.26C162.087 123.262 161.494 121.31 160.384 119.649C159.274 117.988 157.696 116.694 155.85 115.93C154.004 115.166 151.973 114.966 150.014 115.356C148.055 115.746 146.255 116.708 144.843 118.121C143.43 119.533 142.468 121.333 142.078 123.292C141.688 125.251 141.888 127.282 142.652 129.128C143.416 130.974 144.711 132.551 146.371 133.662C148.032 134.772 149.984 135.365 151.982 135.366C153.31 135.366 154.624 135.105 155.851 134.598C157.078 134.09 158.192 133.346 159.131 132.407C160.07 131.469 160.815 130.355 161.324 129.128C161.832 127.902 162.094 126.587 162.094 125.26H162.088Z" fill="#FFCF55"/>
<path d="M219.62 52.072V64.73C219.62 66.227 219.326 67.7096 218.752 69.0926C218.18 70.4758 217.34 71.7324 216.282 72.791C215.222 73.8496 213.966 74.6894 212.582 75.2622C211.2 75.8352 209.718 76.13 208.22 76.13H140.6C139.103 76.13 137.621 75.8352 136.237 75.2622C134.854 74.6894 133.598 73.8496 132.539 72.791C131.48 71.7324 130.641 70.4758 130.068 69.0926C129.495 67.7096 129.2 66.227 129.2 64.73V39.878C129.2 36.8546 130.401 33.955 132.539 31.817C134.677 29.679 137.577 28.478 140.6 28.478H208.214C211.238 28.478 214.138 29.679 216.276 31.817C218.412 33.955 219.614 36.8546 219.614 39.878L219.62 52.072ZM203.804 52.292C203.804 50.2932 203.212 48.3394 202.1 46.6774C200.99 45.0156 199.412 43.7202 197.566 42.9552C195.718 42.1904 193.686 41.9902 191.726 42.3802C189.766 42.7702 187.966 43.7326 186.552 45.146C185.139 46.5594 184.176 48.36 183.786 50.3204C183.396 52.2808 183.596 54.3128 184.361 56.1594C185.126 58.006 186.421 59.5844 188.084 60.6948C189.746 61.8054 191.7 62.398 193.698 62.398C196.378 62.396 198.946 61.3304 200.84 59.4354C202.734 57.5406 203.798 54.9712 203.8 52.292H203.804Z" fill="#FFCF55"/>
<path d="M136.724 0.687988H205.95C205.946 4.77879 204.318 8.70069 201.424 11.5926C198.532 14.4844 194.608 16.1098 190.518 16.112H152.148C148.057 16.112 144.134 14.487 141.242 11.5944C138.349 8.70185 136.724 4.77869 136.724 0.687988Z" fill="#313553"/>
<path d="M203.8 194.836C203.798 196.608 203.334 198.348 202.452 199.884L201.84 199.684C201.82 199.68 201.8 199.674 201.78 199.666C201.348 199.514 200.916 199.386 200.482 199.276C200.27 199.216 200.058 199.158 199.846 199.106C199.558 199.03 199.278 198.97 198.998 198.906C198.65 198.84 198.31 198.772 197.972 198.706C197.36 198.596 196.772 198.52 196.172 198.46C194.15 198.264 192.116 198.238 190.09 198.384C189.988 198.384 189.89 198.4 189.784 198.4C189.606 198.418 189.436 198.426 189.266 198.434C188.732 198.468 188.24 198.502 187.79 198.536C187.124 198.588 186.456 198.588 185.79 198.536C185.79 198.536 185.19 198.392 184.16 198.172C183.775 197.096 183.577 195.962 183.576 194.82C183.557 193.48 183.805 192.152 184.304 190.91C184.803 189.667 185.545 188.536 186.485 187.582C187.426 186.629 188.546 185.872 189.78 185.355C191.016 184.838 192.342 184.572 193.682 184.572C195.02 184.572 196.346 184.838 197.582 185.355C198.816 185.872 199.936 186.629 200.878 187.582C201.818 188.536 202.558 189.667 203.058 190.91C203.558 192.152 203.804 193.48 203.786 194.82L203.8 194.836Z" fill="white"/>
<path d="M193.698 62.398C199.28 62.398 203.804 57.8734 203.804 52.292C203.804 46.7106 199.28 42.186 193.698 42.186C188.116 42.186 183.592 46.7106 183.592 52.292C183.592 57.8734 188.116 62.398 193.698 62.398Z" fill="white"/>
<path d="M141.874 239.772H174.022C172.962 241.796 172.177 243.954 171.69 246.186L171.09 246.152C166.462 245.126 141.874 239.772 141.874 239.772Z" fill="#313553"/>
<path d="M151.988 115.156C153.987 115.154 155.942 115.746 157.605 116.855C159.268 117.965 160.565 119.543 161.331 121.39C162.097 123.236 162.298 125.268 161.909 127.229C161.519 129.19 160.557 130.992 159.144 132.406C157.731 133.82 155.93 134.783 153.969 135.173C152.009 135.564 149.976 135.364 148.129 134.599C146.282 133.834 144.703 132.538 143.593 130.876C142.482 129.214 141.89 127.259 141.89 125.26C141.891 122.582 142.955 120.013 144.848 118.119C146.742 116.224 149.31 115.159 151.988 115.156Z" fill="white"/>
<path d="M128.332 0.687988H134.272C128.842 0.689048 123.636 2.84653 119.797 6.68599C115.957 10.5254 113.801 15.7324 113.8 21.162V125.04H107.86V21.162C107.861 15.7324 110.017 10.5254 113.857 6.68599C117.696 2.84653 122.902 0.689048 128.332 0.687988Z" fill="#313553"/>
<path d="M134.272 239.772H128.332C122.9 239.772 117.691 237.614 113.85 233.772C110.009 229.932 107.851 224.722 107.85 219.29V125.04H113.8V219.29C113.801 224.72 115.957 229.928 119.796 233.768C123.635 237.61 128.842 239.768 134.272 239.772Z" fill="#313553"/>
<path d="M101.622 182.78V208.7C101.622 208.7 92.364 207.114 79.774 205.018C67.184 202.922 67.174 187.818 73.902 182.78C80.63 177.742 100.756 182.78 100.756 182.78H101.622Z" fill="#FFBA93"/>
<path d="M62.134 116.53V130.156H58.018C56.5 130.156 55.736 132.464 56.818 133.822L59.728 137.48L52.058 147.118L49.144 143.46C48.066 142.104 46.234 143.06 46.234 144.972V150.146H35.382V144.972C35.382 143.062 33.548 142.104 32.47 143.46L29.56 147.118L21.89 137.48L24.8 133.822C25.878 132.464 25.114 130.156 23.6 130.156H19.48V116.53H23.6C25.118 116.53 25.882 114.214 24.8 112.864L21.89 109.2L29.56 99.562L32.47 103.218C33.548 104.568 35.382 103.618 35.382 101.7V96.532H46.234V101.708C46.234 103.624 48.066 104.576 49.144 103.226L52.054 99.57L59.724 109.2L56.814 112.856C55.736 114.206 56.5 116.522 58.014 116.522L62.134 116.53ZM47.242 123.344C47.242 118.872 44.358 115.248 40.812 115.248C37.266 115.248 34.372 118.872 34.372 123.344C34.372 127.816 37.256 131.43 40.812 131.43C44.368 131.43 47.242 127.8 47.242 123.344Z" fill="#FFCF55"/>
<path d="M7.628 84.67H0.669983V165.412H7.628V84.67Z" fill="#FFBA93"/>
<path d="M7.62799 84.67L75.734 90.61V159.472L7.62799 165.412" stroke="#313553" stroke-width="0.848" stroke-linecap="round" stroke-linejoin="round"/>
<path d="M7.628 84.67H0.669983V165.412H7.628V84.67Z" stroke="#313553" stroke-width="0.848" stroke-linecap="round" stroke-linejoin="round"/>
<path d="M324.254 5.51611L264.446 18.3702V83.0922L324.254 76.4222" stroke="#313553" stroke-width="0.848" stroke-linecap="round" stroke-linejoin="round"/>
<path d="M330.364 5.51611H324.254V76.4242H330.364V5.51611Z" stroke="#313553" stroke-width="0.848" stroke-linecap="round" stroke-linejoin="round"/>
<path d="M367.96 157.392L305.256 162.858V226.246L367.96 231.72" stroke="#313553" stroke-width="0.848" stroke-linecap="round" stroke-linejoin="round"/>
<path d="M374.366 157.392H367.96V231.718H374.366V157.392Z" stroke="#313553" stroke-width="0.848" stroke-linecap="round" stroke-linejoin="round"/>
<path d="M205.95 0.687989H212.57C215.26 0.687209 217.922 1.21619 220.408 2.24473C222.892 3.27327 225.15 4.78121 227.052 6.68245C228.954 8.58369 230.462 10.841 231.492 13.3254C232.522 15.8098 233.052 18.4728 233.052 21.162V219.29" stroke="#313553" stroke-width="0.848" stroke-linecap="round" stroke-linejoin="round"/>
<path d="M135.638 0.687988H136.724" stroke="#313553" stroke-width="0.848" stroke-linecap="round" stroke-linejoin="round"/>
<path d="M128.332 239.772C122.9 239.772 117.691 237.614 113.85 233.772C110.009 229.932 107.851 224.722 107.85 219.29V21.162C107.85 18.4728 108.38 15.8098 109.41 13.3254C110.439 10.841 111.948 8.58369 113.85 6.68245C115.752 4.78121 118.01 3.27327 120.495 2.24473C122.98 1.21619 125.643 0.687209 128.332 0.687989" stroke="#313553" stroke-width="0.848" stroke-linecap="round" stroke-linejoin="round"/>
<path d="M194.81 239.772H174.022H141.874H135.638" stroke="#313553" stroke-width="0.848" stroke-linecap="round" stroke-linejoin="round"/>
<path d="M134.272 239.772C128.842 239.768 123.635 237.61 119.796 233.768C115.957 229.928 113.801 224.72 113.8 219.29V21.162C113.801 15.7324 115.957 10.5254 119.797 6.68599C123.636 2.84653 128.842 0.689048 134.272 0.687988" stroke="#313553" stroke-width="0.848" stroke-linecap="round" stroke-linejoin="round"/>
<path d="M109.632 236.2C107.151 234.426 105.13 232.084 103.737 229.37C102.343 226.658 101.618 223.65 101.622 220.6V19.854C101.621 17.336 102.117 14.8424 103.081 12.516C104.045 10.1898 105.458 8.07615 107.239 6.29615C109.02 4.51618 111.134 3.1047 113.461 2.1424C115.788 1.18012 118.282 0.685895 120.8 0.687995H135.648" stroke="#313553" stroke-width="0.848" stroke-linecap="round" stroke-linejoin="round"/>
<path d="M135.638 239.772H120.8C116.8 239.78 112.898 238.526 109.65 236.192" stroke="#313553" stroke-width="0.848" stroke-linecap="round" stroke-linejoin="round"/>
<path d="M205.95 0.687988C205.946 4.77879 204.318 8.70069 201.424 11.5926C198.532 14.4844 194.608 16.1098 190.518 16.112H152.148C148.057 16.112 144.134 14.487 141.242 11.5944C138.349 8.70185 136.724 4.77869 136.724 0.687988H205.95Z" stroke="#313553" stroke-width="0.848" stroke-linecap="round" stroke-linejoin="round"/>
<path d="M208.216 76.126H140.6C137.577 76.126 134.677 74.925 132.539 72.787C130.401 70.6492 129.2 67.7494 129.2 64.726V39.878C129.2 36.8546 130.401 33.955 132.539 31.817C134.677 29.679 137.577 28.478 140.6 28.478H208.214C211.238 28.478 214.138 29.679 216.276 31.817C218.412 33.955 219.614 36.8546 219.614 39.878V64.73C219.612 67.7524 218.412 70.6508 216.274 72.7878C214.136 74.9248 211.238 76.1254 208.216 76.126Z" stroke="#313553" stroke-width="0.848" stroke-linecap="round" stroke-linejoin="round"/>
<path d="M208.216 146.974H140.6C137.577 146.974 134.677 145.773 132.539 143.635C130.401 141.497 129.2 138.597 129.2 135.574V110.726C129.2 107.702 130.401 104.803 132.539 102.665C134.677 100.527 137.577 99.326 140.6 99.326H208.214C211.238 99.326 214.138 100.527 216.276 102.665C218.412 104.803 219.614 107.702 219.614 110.726V135.578C219.612 138.6 218.412 141.499 216.274 143.636C214.136 145.773 211.238 146.973 208.216 146.974Z" stroke="#313553" stroke-width="0.848" stroke-linecap="round" stroke-linejoin="round"/>
<path d="M156.026 217.822H140.6C137.577 217.822 134.677 216.62 132.539 214.482C130.401 212.346 129.2 209.446 129.2 206.422V181.574C129.2 178.55 130.401 175.651 132.539 173.513C134.677 171.375 137.577 170.174 140.6 170.174H208.214C211.238 170.174 214.138 171.375 216.276 173.513C218.412 175.651 219.614 178.55 219.614 181.574V206.426C219.616 207.948 219.31 209.454 218.714 210.856" stroke="#313553" stroke-width="0.848" stroke-linecap="round" stroke-linejoin="round"/>
<path d="M81.776 125.04H101.622H107.85H113.79H129.206H136.724" stroke="#313553" stroke-width="0.848" stroke-linecap="round" stroke-linejoin="round"/>
<path d="M184.178 198.188C180.454 197.398 171.214 195.71 165.844 197.008C161.576 198.052 152.514 204.432 154.186 213.198C154.516 214.836 155.136 216.402 156.018 217.822C156.494 218.6 157.021 219.346 157.596 220.054C167.43 232.204 182.966 236.302 193.196 237.108L195.24 239.194C200.212 244.294 212.812 257.194 216.164 260.794C216.164 260.794 225.938 299.11 236.748 309.92C251.376 324.556 259.748 328.73 269.148 330.13" stroke="#313553" stroke-width="0.848" stroke-linecap="round" stroke-linejoin="round"/>
<path d="M189.278 198.442C188.744 198.476 188.252 198.51 187.802 198.544" stroke="#313553" stroke-width="0.848" stroke-linecap="round" stroke-linejoin="round"/>
<path d="M197.976 198.714C197.364 198.604 196.776 198.528 196.176 198.468C194.154 198.272 192.12 198.246 190.094 198.392" stroke="#313553" stroke-width="0.848" stroke-linecap="round" stroke-linejoin="round"/>
<path d="M199.85 199.104C199.562 199.028 199.282 198.968 199.002 198.904" stroke="#313553" stroke-width="0.848" stroke-linecap="round" stroke-linejoin="round"/>
<path d="M201.784 199.664C201.352 199.512 200.92 199.384 200.486 199.274" stroke="#313553" stroke-width="0.848" stroke-linecap="round" stroke-linejoin="round"/>
<path d="M246.508 228.52C240.588 225.93 234.95 222.736 229.682 218.992C225.984 216.498 222.2 213.758 218.602 211.008C215.912 208.946 213.324 206.876 210.974 204.89C208.452 202.734 205.568 201.042 202.456 199.89L201.844 199.69" stroke="#313553" stroke-width="0.848" stroke-linecap="round" stroke-linejoin="round"/>
<path d="M229.682 219C229.682 219 231.024 219.256 233.026 219.51C237.166 220.044 244.158 220.604 248.044 219" stroke="#313553" stroke-width="0.848" stroke-linecap="round" stroke-linejoin="round"/>
<path d="M189.8 198.4C187.61 200.8 177.038 208.836 178.4 218.984" stroke="#313553" stroke-width="0.848" stroke-linecap="round" stroke-linejoin="round"/>
<path d="M154.186 213.2C158.174 216.186 167.972 218 171.808 215.846C171.808 215.846 174.066 204.35 179.138 200.524" stroke="#313553" stroke-width="0.848" stroke-linecap="round" stroke-linejoin="round"/>
<path d="M363.658 380.688C363.658 380.688 363.658 370.734 356.488 352.888C350.464 337.87 320.768 292.934 311.528 267.21C302.644 242.468 290.104 211.61 282.11 194.622C281.796 193.934 281.482 193.282 281.178 192.644C273.26 176.15 258.744 137.884 249.504 122.044C240.264 106.204 233.052 104 233.052 104" stroke="#313553" stroke-width="0.848" stroke-linecap="round" stroke-linejoin="round"/>
<path d="M253.16 351.848L253.058 351.814V351.83C253.16 352.23 255.4 360.986 256.894 369.02C257.764 372.848 258.178 376.764 258.132 380.688" stroke="#313553" stroke-width="0.848" stroke-linecap="round" stroke-linejoin="round"/>
<path d="M168.906 269.57C168.634 270.942 168.52 272.338 168.566 273.736C168.566 274.17 168.592 274.602 168.626 275.034C168.91 278.166 170.065 281.156 171.96 283.664C175.76 288.696 182.186 296.704 185.85 298.418C185.85 298.418 222.132 343.818 238.864 348.182C249.834 351.042 252.524 351.712 253.064 351.83C253.094 351.838 253.126 351.844 253.158 351.848C253.17 351.85 253.18 351.85 253.192 351.848" stroke="#313553" stroke-width="0.848" stroke-linecap="round" stroke-linejoin="round"/>
<path d="M168.566 275.034C168.566 275.034 149.502 272.834 139.26 269.57C139.26 269.57 122.944 265.294 118.396 263.334C118.396 263.334 89.888 252.754 82.684 248.588C75.48 244.422 78.884 226.96 93.306 231.134C101.8 233.586 109.284 236.072 109.632 236.192" stroke="#313553" stroke-width="0.848" stroke-linecap="round" stroke-linejoin="round"/>
<path d="M116.156 245.304C116.156 245.304 115.156 249.8 114.91 252.05" stroke="#313553" stroke-width="0.848" stroke-linecap="round" stroke-linejoin="round"/>
<path d="M142.46 249.546C142.46 249.546 141.46 256.588 141.212 258.838" stroke="#313553" stroke-width="0.848" stroke-linecap="round" stroke-linejoin="round"/>
<path d="M253.058 351.814C253.058 351.814 257.76 351.89 260.746 351.814L256.902 369.014" stroke="#313553" stroke-width="0.848" stroke-linecap="round" stroke-linejoin="round"/>
<path d="M100.756 182.78C100.756 182.78 80.614 177.74 73.902 182.78C67.19 187.82 67.182 202.922 79.774 205.018C92.366 207.114 101.622 208.7 101.622 208.7" stroke="#313553" stroke-width="0.848" stroke-linecap="round" stroke-linejoin="round"/>
<path d="M174.022 239.772C172.962 241.796 172.177 243.954 171.69 246.186C171.371 247.566 171.17 248.972 171.09 250.386" stroke="#313553" stroke-width="0.848" stroke-linecap="round" stroke-linejoin="round"/>
<path d="M141.874 239.772C141.874 239.772 166.462 245.126 171.086 246.152" stroke="#313553" stroke-width="0.848" stroke-linecap="round" stroke-linejoin="round"/>
<path d="M162.094 125.26C162.094 127.258 161.501 129.211 160.391 130.871C159.281 132.532 157.703 133.827 155.857 134.591C154.012 135.356 151.981 135.556 150.021 135.166C148.062 134.776 146.262 133.814 144.85 132.402C143.437 130.989 142.475 129.19 142.084 127.231C141.694 125.271 141.894 123.24 142.658 121.394C143.422 119.549 144.716 117.971 146.377 116.86C148.038 115.75 149.99 115.157 151.988 115.156C153.315 115.156 154.629 115.417 155.855 115.925C157.081 116.432 158.195 117.176 159.134 118.115C160.072 119.053 160.817 120.167 161.325 121.393C161.833 122.619 162.094 123.933 162.094 125.26Z" stroke="#313553" stroke-width="0.848" stroke-linecap="round" stroke-linejoin="round"/>
<path d="M255.426 52.072H233.052H219.62H208.972" stroke="#313553" stroke-width="0.848" stroke-linecap="round" stroke-linejoin="round"/>
<path d="M193.698 62.398C199.28 62.398 203.804 57.8734 203.804 52.292C203.804 46.7106 199.28 42.186 193.698 42.186C188.116 42.186 183.592 46.7106 183.592 52.292C183.592 57.8734 188.116 62.398 193.698 62.398Z" stroke="#313553" stroke-width="0.848" stroke-linecap="round" stroke-linejoin="round"/>
<path d="M297.85 194.616H282.11H233.052H219.62H208.972" stroke="#313553" stroke-width="0.848" stroke-linecap="round" stroke-linejoin="round"/>
<path d="M184.178 198.188C185.198 198.408 185.808 198.552 185.808 198.552C186.474 198.604 187.142 198.604 187.808 198.552C188.266 198.526 188.758 198.492 189.284 198.45C189.454 198.45 189.624 198.434 189.802 198.416C189.904 198.416 190.002 198.416 190.108 198.4C192.134 198.258 194.168 198.284 196.19 198.476C196.768 198.536 197.37 198.62 197.99 198.722C198.328 198.782 198.668 198.85 199.016 198.922C199.296 198.982 199.576 199.05 199.864 199.122C200.076 199.174 200.288 199.232 200.5 199.292C200.934 199.41 201.366 199.538 201.798 199.682C201.818 199.69 201.838 199.696 201.858 199.7C202.058 199.766 202.258 199.834 202.458 199.912V199.902C203.232 198.56 203.686 197.056 203.786 195.51C203.888 193.964 203.63 192.414 203.036 190.984C202.442 189.552 201.528 188.276 200.362 187.255C199.196 186.234 197.812 185.494 196.314 185.093C194.818 184.693 193.248 184.642 191.728 184.944C190.208 185.247 188.778 185.895 187.55 186.839C186.32 187.782 185.324 188.996 184.638 190.386C183.953 191.776 183.596 193.304 183.596 194.854C183.599 195.99 183.795 197.118 184.178 198.188Z" stroke="#313553" stroke-width="0.848" stroke-linecap="round" stroke-linejoin="round"/>
<path d="M62.134 116.53H58.018C56.5 116.53 55.736 114.214 56.818 112.864L59.724 109.2L52.054 99.562L49.144 103.218C48.066 104.568 46.234 103.618 46.234 101.7V96.532H35.382V101.708C35.382 103.624 33.548 104.576 32.47 103.226L29.56 99.57L21.89 109.2L24.8 112.864C25.878 114.214 25.114 116.53 23.6 116.53H19.48V130.156H23.6C25.118 130.156 25.882 132.464 24.8 133.822L21.89 137.48L29.56 147.118L32.47 143.46C33.548 142.104 35.382 143.06 35.382 144.972V150.146H46.234V144.972C46.234 143.062 48.066 142.104 49.144 143.46L52.054 147.118L59.724 137.48L56.814 133.822C55.736 132.464 56.5 130.156 58.014 130.156H62.13V116.53H62.134Z" stroke="#313553" stroke-width="0.848" stroke-linecap="round" stroke-linejoin="round"/>
<path d="M47.242 123.344C47.242 127.806 44.358 131.43 40.812 131.43C37.266 131.43 34.372 127.806 34.372 123.344C34.372 118.882 37.256 115.248 40.812 115.248C44.368 115.248 47.242 118.872 47.242 123.344Z" stroke="#313553" stroke-width="0.848" stroke-linecap="round" stroke-linejoin="round"/>
<path d="M298.614 41.8138C296.978 41.0736 295.188 40.744 293.396 40.8538C289.476 41.1078 286.072 43.9178 283.74 47.9818C281.304 52.4082 280.188 57.4404 280.524 62.4818C280.54 62.7438 280.558 63.0158 280.584 63.2818" stroke="#313553" stroke-width="0.848" stroke-linecap="round" stroke-linejoin="round"/>
<path d="M308.786 59.7421C308.786 59.4781 308.77 59.2161 308.752 58.9421C308.526 54.5903 307.076 50.3907 304.57 46.8261C303.798 45.7579 302.904 44.7837 301.906 43.9241" stroke="#313553" stroke-width="0.848" stroke-linecap="round" stroke-linejoin="round"/>
<path d="M308.786 59.742L317.186 59.198C317.17 58.936 317.17 58.672 317.152 58.398C316.786 51.4848 314.492 44.8124 310.526 39.138C305.97 32.86 299.546 29.1 292.674 29.55C286.064 29.984 280.37 34.684 276.654 41.506C273.176 48.1192 271.614 55.571 272.14 63.024C272.158 63.294 272.182 63.558 272.2 63.824L280.6 63.282" stroke="#313553" stroke-width="0.848" stroke-linecap="round" stroke-linejoin="round"/>
<path d="M301.906 43.926L302.322 43.162C302.594 42.6304 302.698 42.0292 302.622 41.4372C302.546 40.8454 302.292 40.29 301.896 39.844C301.73 39.6586 301.518 39.5186 301.282 39.4372C301.048 39.356 300.794 39.3362 300.55 39.3796C300.304 39.423 300.074 39.5284 299.88 39.6856C299.686 39.8428 299.536 40.0468 299.444 40.278L298.614 41.814L295.214 48.074C294.776 47.9194 294.312 47.8562 293.848 47.888C291.344 48.05 289.486 50.918 289.706 54.288C289.926 57.658 292.142 60.27 294.644 60.108C297.146 59.946 299.006 57.08 298.786 53.708C298.726 52.7522 298.492 51.815 298.098 50.942L301.906 43.926Z" stroke="#313553" stroke-width="0.848" stroke-linecap="round" stroke-linejoin="round"/>
<path d="M292.666 29.552L293.396 40.854" stroke="#313553" stroke-width="0.848" stroke-linecap="round" stroke-linejoin="round"/>
<path d="M276.706 41.542L282.848 47.922" stroke="#313553" stroke-width="0.848" stroke-linecap="round" stroke-linejoin="round"/>
<path d="M310.212 39.3602L305.07 46.4802" stroke="#313553" stroke-width="0.848" stroke-linecap="round" stroke-linejoin="round"/>
<path d="M342.6 195.744L347.6 189.398C349.05 189.894 350.624 189.905 352.08 189.429C353.538 188.953 354.8 188.015 355.678 186.758C356.978 185.062 357.78 183.038 357.994 180.912C357.934 180.99 357.876 181.074 357.816 181.158C357.294 181.912 356.598 182.528 355.786 182.953C354.972 183.378 354.07 183.601 353.154 183.601C352.236 183.601 351.334 183.378 350.52 182.953C349.708 182.528 349.012 181.912 348.49 181.158C347.238 179.442 346.562 177.373 346.562 175.249C346.562 173.125 347.238 171.056 348.49 169.34C348.55 169.26 348.616 169.186 348.69 169.118C346.842 169.49 345.198 170.533 344.074 172.046C343.004 173.499 342.264 175.169 341.904 176.938C341.546 178.706 341.576 180.532 341.996 182.288L336.996 188.634" stroke="#313553" stroke-width="0.848" stroke-linecap="round" stroke-linejoin="round"/>
<path d="M331.374 195.744L324.272 204.744L324.348 204.838C323.616 204.872 322.902 205.068 322.258 205.414C321.612 205.76 321.054 206.246 320.622 206.838C319.602 208.24 319.054 209.928 319.054 211.662C319.054 213.394 319.602 215.082 320.622 216.484C321.048 217.098 321.618 217.6 322.28 217.948C322.942 218.294 323.68 218.476 324.428 218.476C325.176 218.476 325.914 218.294 326.576 217.948C327.238 217.6 327.808 217.098 328.234 216.484C329.256 215.124 329.808 213.47 329.804 211.768L329.88 211.86L334.428 206.1L336.982 202.858" stroke="#313553" stroke-width="0.848" stroke-linecap="round" stroke-linejoin="round"/>
<path d="M336.982 188.634L331.982 182.288C332.4 180.532 332.43 178.705 332.068 176.936C331.708 175.167 330.966 173.499 329.894 172.046C328.776 170.535 327.136 169.491 325.294 169.118C325.36 169.189 325.422 169.263 325.48 169.34C326.736 171.054 327.412 173.124 327.412 175.249C327.412 177.374 326.736 179.444 325.48 181.158C324.96 181.912 324.264 182.528 323.452 182.953C322.64 183.379 321.738 183.601 320.822 183.601C319.906 183.601 319.004 183.379 318.192 182.953C317.38 182.528 316.684 181.912 316.164 181.158C316.096 181.074 316.044 180.99 315.986 180.912C316.2 183.036 317 185.06 318.294 186.758C319.172 188.016 320.436 188.954 321.896 189.43C323.354 189.907 324.928 189.895 326.38 189.398L331.38 195.744L336.98 202.854L344.082 211.854L344.15 211.762C344.148 213.462 344.698 215.118 345.718 216.478C346.144 217.092 346.714 217.594 347.376 217.942C348.038 218.288 348.776 218.47 349.524 218.47C350.272 218.47 351.01 218.288 351.672 217.942C352.334 217.594 352.904 217.092 353.33 216.478C354.356 215.078 354.908 213.39 354.908 211.654C354.908 209.92 354.356 208.232 353.33 206.832C352.9 206.24 352.344 205.754 351.7 205.408C351.058 205.062 350.344 204.864 349.614 204.832L349.682 204.738L342.588 195.738L336.982 188.634Z" stroke="#313553" stroke-width="0.848" stroke-linecap="round" stroke-linejoin="round"/>
<path d="M331.374 195.744L334.428 206.096" stroke="#313553" stroke-width="0.848" stroke-linecap="round" stroke-linejoin="round"/>
</svg>
