<svg width="396" height="346" viewBox="0 0 396 346" fill="none" xmlns="http://www.w3.org/2000/svg">
<path fill-rule="evenodd" clip-rule="evenodd" d="M251.88 172.44H179.356C166.896 172.44 165.022 187.738 178.376 187.924C191.73 188.11 249.808 188.576 251.88 188.576C253.172 188.576 252.69 172.44 251.88 172.44Z" fill="#ECB83A"/>
<path fill-rule="evenodd" clip-rule="evenodd" d="M320.43 134.318C320.417 130.951 319.141 127.711 316.855 125.238C314.57 122.766 311.44 121.24 308.084 120.962C300.484 120.252 134.622 120.65 125.85 120.962C117.078 121.274 112.96 127.222 112.594 132.53C112.336 136.262 112.04 146.594 113.658 146.594C118.498 146.594 317.592 147.098 319.948 147.134C321.336 147.154 320.43 135.726 320.43 134.318ZM280.862 140C272.942 140 272.218 127.64 280.422 127.64C281.269 127.549 282.126 127.633 282.939 127.887C283.752 128.141 284.503 128.56 285.147 129.118C285.791 129.675 286.313 130.36 286.681 131.128C287.049 131.896 287.254 132.732 287.284 133.584C287.315 134.435 287.169 135.283 286.857 136.076C286.545 136.868 286.073 137.588 285.47 138.19C284.868 138.792 284.148 139.264 283.355 139.575C282.562 139.886 281.713 140.031 280.862 140ZM301.896 140C301.05 140.092 300.193 140.009 299.38 139.755C298.567 139.501 297.816 139.083 297.171 138.526C296.527 137.969 296.005 137.286 295.637 136.518C295.268 135.75 295.062 134.915 295.031 134.064C295 133.213 295.144 132.365 295.455 131.572C295.766 130.779 296.237 130.059 296.838 129.457C297.44 128.854 298.159 128.382 298.951 128.069C299.743 127.756 300.591 127.61 301.442 127.64C309.6 127.634 310.312 140 301.896 140Z" fill="#ECB83A"/>
<path fill-rule="evenodd" clip-rule="evenodd" d="M319.778 192.636C321.093 178.952 321.207 165.18 320.118 151.476C319.98 149.73 317.282 150.058 317.422 151.804C318.338 163.156 318.622 186.632 316.358 198.204C314.094 209.776 305.798 208.296 296.644 208.404L139.504 210.248C111.422 210.576 114.986 208.848 114.652 151.974C114.652 150.724 112.526 150.696 112.452 151.974C112.01 159.738 111.674 191.5 112.948 199.434C115.52 215.434 131.548 212.974 144.584 212.834L291.918 211.144C308.822 210.958 317.768 213.558 319.778 192.636Z" fill="#191919"/>
<path fill-rule="evenodd" clip-rule="evenodd" d="M256.72 172.638C256.584 172.644 256.45 172.676 256.327 172.733C256.203 172.791 256.092 172.872 256 172.972C255.814 173.174 255.716 173.442 255.727 173.717C255.738 173.992 255.858 174.251 256.061 174.437C256.263 174.623 256.531 174.721 256.806 174.71C270.586 175.448 284.538 174.56 298.22 175.348C303.088 175.63 305.394 177.72 305.62 179.932C306.268 186.492 295.074 185.744 291.22 185.844H257.3C255.582 185.844 255.7 188.662 257.414 188.644C269.164 188.548 280.906 188.398 292.64 188.346C298.24 188.32 308.6 188.146 308.052 179.946C307.608 173.276 299.722 172.894 294.768 172.85C282.748 172.744 268.16 172.176 256.72 172.638Z" fill="#191919"/>
<path fill-rule="evenodd" clip-rule="evenodd" d="M144.47 161.54C144.158 160.616 142.822 160.886 142.512 161.638C141.896 163.14 141.746 174.894 141.674 177.08C139.874 175.66 138.092 174.25 136.274 172.908C135.932 172.654 133.036 172.654 136.416 175.988C138.392 177.943 140.593 179.658 142.972 181.096C144.15 181.394 148.772 176.136 149.814 175.164C152.34 172.806 150.214 171.928 149.444 172.084C147.624 173.306 145.952 174.734 144.462 176.342C144.462 173.632 145.172 163.568 144.462 161.468L144.47 161.54Z" fill="#191919"/>
<path fill-rule="evenodd" clip-rule="evenodd" d="M128.476 189.526C126.876 189.46 126.936 184.326 126.844 183.04C126.538 178.782 129.128 180.884 129.128 180.884C129.866 181.684 129.81 186.248 129.782 187.228C138.823 186.554 147.905 186.64 156.932 187.484C156.69 184.644 155.882 180.784 157.896 180.642C159.91 180.5 159.53 183.338 159.558 185.666C159.584 187.766 160.068 190.374 158.664 190.35C148.46 190.176 138.552 189.942 128.476 189.526Z" fill="#191919"/>
<path fill-rule="evenodd" clip-rule="evenodd" d="M196.232 83.3241C195.65 82.4861 191.064 76.5241 189.746 76.6541C186.082 76.9881 169.124 82.4021 170.884 84.9421C173.508 95.4721 178.162 114.478 179.016 116.804C179.37 117.77 180.848 117.272 180.704 116.294C179.686 109.378 175.184 93.0601 172.926 84.7721C178.315 82.2346 183.965 80.2898 189.774 78.9721C191.462 80.8461 193.124 82.6901 194.798 84.6501C197.41 86.5941 245.598 71.8761 250.462 70.5701C259.662 100.048 259.81 105.834 263.604 113.802C264.084 114.802 265.392 114.028 265.264 113.106C261.786 101.212 257.02 79.3541 251.952 68.9061C251 66.9221 196.232 83.5781 196.232 83.3241Z" fill="#191919"/>
<path fill-rule="evenodd" clip-rule="evenodd" d="M211.46 33.8901C216.49 38.3401 233.79 59.8341 237.234 65.7821C237.77 66.7061 236.298 67.4261 235.716 66.6761C228.64 57.5761 224.772 50.8941 210.964 35.7221C191.662 48.9501 174.29 66.0381 171.508 65.0441C168.726 64.0501 165.064 63.3981 162.438 62.5741C158.196 66.0738 154.264 69.9342 150.688 74.1121C152.604 76.1121 167.362 93.0541 168.768 95.5301C169.344 96.5401 167.98 97.7821 167.236 96.8501C155.496 82.1221 147.46 75.2001 148.6 73.2901C150.4 70.2761 158.294 62.5181 161.2 61.2261C161.612 59.3381 170.184 62.6461 171.56 63.2121C171.564 63.0121 209.54 32.2001 211.46 33.8901Z" fill="#191919"/>
<path fill-rule="evenodd" clip-rule="evenodd" d="M133.954 74.254C134.21 72.054 137.402 56.868 138.822 56.316L146.856 53.888C148.274 50.042 161.218 15.642 162.466 15.888C167.504 16.85 199.066 29.708 201.78 31.756C202.59 32.356 202.034 33.72 201.086 33.374C188.984 28.974 174.858 21.906 163.106 18.06C162.722 20.09 148.8 55.13 148.506 55.428C147.086 56.848 141.976 57.402 139.806 57.97C139.664 60.424 136.824 70.318 136.016 73.354L142.828 75.1C143.864 75.568 143.722 77.342 142.446 77.2C143.272 77.2 133.8 75.58 133.954 74.254Z" fill="#191919"/>
<path fill-rule="evenodd" clip-rule="evenodd" d="M92.228 64.774C90.808 65.242 86.3141 70.692 86.5501 72.04C87.5074 77.6909 89.1321 83.2082 91.3901 88.476C92.0561 90 123.11 80.188 126.758 79.166C126.896 79.1409 127.028 79.0889 127.146 79.0129C127.264 78.9369 127.365 78.8385 127.445 78.7231C127.525 78.6078 127.581 78.4779 127.611 78.3408C127.641 78.2036 127.643 78.062 127.618 77.924C127.593 77.786 127.541 77.6543 127.465 77.5364C127.389 77.4184 127.29 77.3167 127.175 77.2368C127.06 77.1569 126.93 77.1006 126.793 77.0709C126.656 77.0413 126.514 77.0389 126.376 77.064C115.043 79.4509 103.881 82.5912 92.9661 86.464C91.2139 81.794 89.7491 77.021 88.5801 72.172C89.5021 70.994 94.4001 65.772 94.2581 64.82C91.4181 51.578 88.4241 37.854 85.5141 24.67C98.2881 22.484 111.6 19.27 124.474 16.778C125.168 23.194 129.908 41.956 132.988 54.778C133.156 55.474 134.4 54.992 134.408 54.31C134.464 50.052 127.086 21.35 125.58 15.338C125.018 13.094 87.2621 21.938 84.1101 22.958C81.4861 23.816 90.978 59.86 92.186 64.812L92.228 64.774Z" fill="#191919"/>
<path fill-rule="evenodd" clip-rule="evenodd" d="M81.768 102.214C69.252 93.176 48.056 78.362 34.378 71.87C31.546 70.526 16.084 101.546 15.53 106.898C15.53 109.934 41.674 123.698 47.45 125.986C47.55 128.968 47.634 131.948 47.734 134.928C48.334 136.348 54.062 139.19 55.71 139.626C62.632 141.458 65.262 142.138 65.91 140.208C72.816 119.29 82.122 102.47 81.768 102.214ZM64.184 139.286C59.1124 138.496 54.2208 136.814 49.736 134.318C49.906 133.04 49.948 124.85 48.444 124.07C37.488 118.39 28.134 113.242 17.432 106.77C22.94 92.464 27.368 86.56 34.548 74.298C50.062 83.722 64.638 92.152 79.548 102.98C75.822 109.6 65.986 132.2 64.184 139.286Z" fill="#191919"/>
<path fill-rule="evenodd" clip-rule="evenodd" d="M60.862 161.412C43.278 160.854 24.288 160.272 6.68797 160.688C3.12597 160.772 9.11197 195.91 10.322 199.532C10.852 201.12 38.494 200.498 44.228 199.632C45.0238 201.785 46.3161 203.72 48 205.28C49.022 206.062 65.542 206.08 65.882 203.932C62.2 179.152 63.034 161.48 60.862 161.412ZM49.422 203.412C48.728 202.474 45.506 197.48 44.64 197.436C33.74 197.762 22.968 197.862 12.082 198.046C9.68429 186.349 8.16141 174.489 7.52597 162.566L59.526 163.366C60.526 176.14 61.698 189.85 63.458 202.452L49.422 203.412Z" fill="#191919"/>
<path fill-rule="evenodd" clip-rule="evenodd" d="M93.9602 248.014C84.7602 237.334 71.1002 218.96 69.9602 219.474C54.4072 226.307 39.2958 234.104 24.7142 242.82C20.9142 245.138 39.8482 270.49 43.8022 274.044C46.3522 276.334 68.4562 260.376 72.3722 257.964C74.5114 259.8 77.0109 261.168 79.7102 261.98C80.9502 262.338 95.3802 249.664 93.9602 248.014ZM80.0002 259.568C75.3442 258.006 72.6522 255.072 71.4842 255.82C62.7062 261.446 54.5522 266.99 44.3342 272.71C37.3051 263.722 31.2204 254.035 26.1762 243.8C40.7222 235.284 55.0582 229.152 69.9162 222.07C73.0262 226.57 87.5162 245.02 91.8022 248.526C87.8562 252.4 84.1242 255.864 80.0002 259.568Z" fill="#191919"/>
<path fill-rule="evenodd" clip-rule="evenodd" d="M155.442 286.022C151.916 283.348 125.042 272.722 118.13 271.276C116.114 270.854 90.9101 314.544 92.3981 315.728C102.86 323.458 114.686 329.145 127.256 332.49C130.096 333.216 143.056 304.174 144.768 300.47C146.558 300.47 148.768 300.03 150.568 300.016C152.448 299.59 156.944 287.162 155.442 286.022ZM150.042 298.222C148.482 298.322 143.346 297.982 142.876 298.988C138 309.4 132.8 319.688 127.71 330C113.51 325.742 106.988 322.42 94.4281 314.828C94.4281 314.828 111.458 282.908 118.556 273.386C125.906 275.898 147.394 284.74 153.866 287.222C152.574 290.89 151.284 294.538 150.048 298.214L150.042 298.222Z" fill="#191919"/>
<path fill-rule="evenodd" clip-rule="evenodd" d="M243.492 307.212C242.968 303.352 242.456 297.888 241.932 294.042C240.98 291.7 225.794 294.262 205.57 294.254C203.214 294.254 206.834 338.706 207.074 343.39C210.226 346.59 239.988 345.022 239.958 341.16L237.358 312.194C240 310.434 242.556 309.028 243.492 307.212ZM235.446 311.924C236.174 321.524 236.903 331.118 237.632 340.706C228.115 342.375 218.442 342.975 208.792 342.494C208.536 327.38 206.606 312.038 207.116 296.212C218.032 296.128 228.774 295.886 240.016 295.106C240.228 296.54 241.634 306.602 241.122 307.142C241.122 307.6 237.136 309.168 235.446 311.924Z" fill="#191919"/>
<path fill-rule="evenodd" clip-rule="evenodd" d="M313.534 275.8C314.952 273.232 315.67 272.082 315.592 271.046C315.498 269.798 308.04 259.35 306.892 259.99C301.782 262.828 289.562 274.708 286.492 278.936C286.378 281.604 303.92 312.02 305.992 312.714C306.992 316.434 325.12 297.684 325.04 296.578C324.928 295.2 314.768 277.976 313.534 275.8ZM307.062 310.884C300.142 300.773 293.975 290.166 288.61 279.15C294.984 273.06 300.22 268.25 306.934 262.63L313.236 271.414L311.546 275.414C311.12 276.436 321.482 292.928 323.114 296.378C318.416 301.891 313.02 306.769 307.062 310.888V310.884Z" fill="#191919"/>
<path fill-rule="evenodd" clip-rule="evenodd" d="M373.326 232.246C371.598 230.426 359.29 224.47 357.02 223.66C357.19 222.752 357.758 218.46 357.246 217.984C354.195 216.234 351.017 214.716 347.738 213.442C346.092 213.442 335.498 235.66 336.384 236.406C339.584 239.098 360.934 253.076 364.924 254.606C366.22 255.094 374.308 233.28 373.326 232.246ZM364.514 251.69C362.328 250.272 340.4 236.15 338.47 235.49C338.67 235.306 346.986 218.006 348.306 215.622C350.523 217.11 352.904 218.338 355.402 219.282C355.132 220.991 355.098 222.73 355.302 224.448C355.302 225.03 368.6 231.828 371.17 232.808C368.942 239.074 366.712 245.446 364.514 251.69Z" fill="#191919"/>
<path fill-rule="evenodd" clip-rule="evenodd" d="M383.502 174.058C383.502 172.638 373.086 169.8 371.502 169.232C371.5 167.962 371.314 166.7 370.948 165.484C370.394 164.364 361.88 161.226 361.17 161.652C359.51 162.532 355.942 180.75 357.48 181.594C360.098 183.028 378.024 190.708 380.556 190.108C381.988 189.772 383.744 174.498 383.502 174.058ZM379.586 187.696C372.674 185.312 365.804 182.544 358.95 180.23L362.058 163.796L369.154 166.52C369.282 167.414 369.494 170.48 370.304 170.778L381.36 174.824C380.704 178.744 379.586 186.972 379.586 187.696Z" fill="#191919"/>
<path fill-rule="evenodd" clip-rule="evenodd" d="M381.062 115.272C380.526 114.742 369.084 115.072 366.4 114.988L362.782 111.61C361.49 111.61 354.934 111.298 354.336 112.078C353.738 112.858 358.07 129.12 359.034 130.444C359.524 131.116 382.864 131.11 383.262 130.444C383.054 125.324 382.317 120.24 381.062 115.272ZM360.326 128.64C358.964 123.573 357.62 118.531 356.296 113.512C358.07 113.512 360.554 113.782 362.256 113.624C363.217 114.81 364.329 115.865 365.564 116.762C370.185 117.142 374.824 117.25 379.458 117.088C379.916 121.108 380.666 125.089 381.7 129C374.746 128.982 367.294 128.64 360.326 128.64Z" fill="#191919"/>
<path fill-rule="evenodd" clip-rule="evenodd" d="M351.612 49.162C350.836 48.392 338.924 53.306 337.412 53.846C336.262 52.8896 334.999 52.0788 333.65 51.432C332.85 51.432 324.152 54.812 324.992 56.358C327.192 60.392 333.408 70.182 337.128 73.204C338.328 74.184 357.278 66.106 358.616 64.874C360.182 63.436 352.958 50.498 351.612 49.162ZM338 71.43C334.054 66.548 330.902 61.496 327.17 56.4L333.344 53.69C334.012 54.102 336.666 56.016 337.276 55.86C341.892 54.6787 346.391 53.0781 350.716 51.078C352.618 55.222 354.974 59.366 356.818 63.51C354 64.926 338 71.23 338 71.43Z" fill="#191919"/>
<path fill-rule="evenodd" clip-rule="evenodd" d="M0.0600809 96.5521C-0.309919 97.5521 1.16808 98.3681 1.60808 97.3321C12.1281 72.5521 24.6341 56.2361 43.4201 37.8001C44.0861 37.1461 43.1081 35.9401 42.3541 36.5361C42.3541 35.4661 13.5701 59.8241 0.0600809 96.5521Z" fill="#ECB83A"/>
<path fill-rule="evenodd" clip-rule="evenodd" d="M164.44 113.454C160.464 109.284 154.162 103.15 149.212 100.368C148.286 99.85 147.52 101.208 148.232 101.888C153.032 106.46 158.182 110.034 163.106 115.002C164.032 115.936 165.334 114.4 164.44 113.454Z" fill="#ECB83A"/>
<path fill-rule="evenodd" clip-rule="evenodd" d="M207.556 17.9381C199.638 9.13805 181.866 2.33805 172.076 0.908054C171.822 0.870393 171.563 0.935206 171.357 1.08824C171.151 1.24127 171.014 1.46998 170.976 1.72405C170.938 1.97813 171.003 2.23676 171.156 2.44305C171.309 2.64934 171.538 2.78639 171.792 2.82405C189.532 5.70205 196.366 11.9621 206.436 19.2861C207.236 19.8661 208.054 18.5061 207.5 17.8681L207.556 17.9381Z" fill="#ECB83A"/>
<path fill-rule="evenodd" clip-rule="evenodd" d="M81.612 82.0461C79.128 81.9621 75.576 87.3441 74.742 89.1421C74.294 90.1101 75.92 90.8741 76.446 89.9521C78.486 86.3741 82.122 84.0201 82.434 83.2661C82.4795 83.1324 82.4932 82.99 82.4741 82.8501C82.4549 82.7102 82.4034 82.5767 82.3236 82.4602C82.2438 82.3437 82.1379 82.2474 82.0144 82.179C81.8908 82.1106 81.7531 82.0719 81.612 82.0661V82.0461Z" fill="#ECB83A"/>
<path fill-rule="evenodd" clip-rule="evenodd" d="M72.9821 40.448C62.5001 43.058 51.4001 54.458 46.1821 63.71C45.5581 64.816 47.3481 65.57 47.9821 64.49C53.8957 54.4479 62.8932 46.5833 73.6361 42.066C74.4441 41.726 73.8481 40.232 72.9821 40.448Z" fill="#ECB83A"/>
<path fill-rule="evenodd" clip-rule="evenodd" d="M66.2982 62.2341C67.1362 61.9921 67.7182 63.2341 67.0982 63.6521C62.5194 66.4396 58.867 70.5185 56.6002 75.3761C56.0562 76.5081 54.4002 75.5021 54.9122 74.3761C56.7122 70.3401 61.6822 63.5621 66.2662 62.2141L66.2982 62.2341Z" fill="#ECB83A"/>
<path fill-rule="evenodd" clip-rule="evenodd" d="M36.0001 127.32C31.7561 132.2 29.4801 142.336 29.4441 148.624C29.4441 149.702 31.2621 149.824 31.3461 148.738C32.0921 139.172 34.5061 133.322 37.7881 128.528C38.4661 127.534 36.8221 126.372 36.0001 127.32Z" fill="#ECB83A"/>
<path fill-rule="evenodd" clip-rule="evenodd" d="M23.1662 128.64C19.7042 133.466 18.1282 146.324 18.1422 152.272C18.1803 152.506 18.3006 152.719 18.4814 152.873C18.6622 153.027 18.8918 153.111 19.1292 153.111C19.3665 153.111 19.5962 153.027 19.777 152.873C19.9578 152.719 20.078 152.506 20.1162 152.272C20.3458 144.416 21.9711 136.664 24.9162 129.378C25.3162 128.378 23.8382 127.676 23.1702 128.598L23.1662 128.64Z" fill="#ECB83A"/>
<path fill-rule="evenodd" clip-rule="evenodd" d="M53.1701 303.21C33.5561 289.258 23.4921 273.944 14.0841 252.61C14.0045 252.401 13.8452 252.232 13.6411 252.141C13.4371 252.049 13.205 252.043 12.9961 252.122C12.7871 252.202 12.6182 252.361 12.5267 252.565C12.4352 252.769 12.4285 253.001 12.5081 253.21C18.5261 273.078 34.9361 292.71 52.0341 304.586C52.9721 305.238 54.1201 303.876 53.1701 303.168V303.21Z" fill="#ECB83A"/>
<path fill-rule="evenodd" clip-rule="evenodd" d="M378.18 197.944C378.153 197.747 378.055 197.567 377.905 197.437C377.755 197.306 377.563 197.235 377.364 197.235C377.166 197.235 376.973 197.306 376.824 197.437C376.674 197.567 376.576 197.747 376.548 197.944C375.814 203.144 375.99 205.798 373.284 210.618C372.78 211.516 374.36 212.418 374.884 211.526C376.908 207.986 379.132 202.044 378.18 197.944Z" fill="#ECB83A"/>
<path fill-rule="evenodd" clip-rule="evenodd" d="M367.466 196.07C366.146 198.412 362.866 210.79 362.1 213.512C361.778 214.648 363.516 214.93 363.86 213.854C364.72 211.154 368.842 199.254 369.04 196.594C369.08 196.394 369.045 196.187 368.943 196.011C368.841 195.835 368.677 195.702 368.484 195.638C368.291 195.574 368.081 195.582 367.893 195.662C367.706 195.741 367.554 195.886 367.466 196.07Z" fill="#ECB83A"/>
<path fill-rule="evenodd" clip-rule="evenodd" d="M322.488 276.358C322.351 276.516 322.272 276.716 322.265 276.926C322.258 277.135 322.324 277.34 322.45 277.507C322.577 277.674 322.758 277.791 322.961 277.84C323.165 277.889 323.379 277.867 323.568 277.776C328.492 274.398 337.32 265.756 339.094 259.776C339.364 258.868 338.144 257.96 337.674 258.882C336.976 259.166 333.76 268.048 322.488 276.358Z" fill="#ECB83A"/>
<path fill-rule="evenodd" clip-rule="evenodd" d="M331.388 250.966C330.436 254.766 323.788 260.752 320.788 262.79C319.85 263.426 319.038 261.99 319.894 261.37C326.77 256.444 327.894 252.272 329.956 250.214C330.074 249.736 331.588 249.864 331.388 250.966Z" fill="#ECB83A"/>
<path fill-rule="evenodd" clip-rule="evenodd" d="M270.132 323C269.9 323.075 269.705 323.238 269.591 323.454C269.477 323.669 269.451 323.921 269.52 324.156C269.588 324.39 269.745 324.589 269.958 324.709C270.171 324.829 270.422 324.862 270.658 324.8C275.046 323.508 287.504 318.854 290.938 315.362C291.538 314.762 290.824 313.532 290.058 313.944C289.55 313.684 279.658 320.108 270.132 323Z" fill="#ECB83A"/>
<path fill-rule="evenodd" clip-rule="evenodd" d="M262.95 312.35C256.638 314.884 254.606 317.402 246.728 317.15C246.509 317.166 246.302 317.26 246.147 317.417C245.992 317.573 245.899 317.78 245.885 318C245.871 318.22 245.937 318.437 246.071 318.612C246.205 318.787 246.398 318.907 246.614 318.95C251.302 319.289 255.995 318.357 260.198 316.252C266.278 313.184 263.832 312 262.95 312.35Z" fill="#ECB83A"/>
<path fill-rule="evenodd" clip-rule="evenodd" d="M277.144 290.536C268.79 293.898 259.915 295.785 250.916 296.114C249.852 296.14 249.978 297.774 251.044 297.76C258.044 297.664 271.644 295.718 277.882 292.082C278.75 291.576 277.966 290.322 277.144 290.664V290.536Z" fill="#ECB83A"/>
<path fill-rule="evenodd" clip-rule="evenodd" d="M193.974 304.274C184.886 303.75 181.644 304.82 172.146 301.564C171.068 301.194 170.614 302.868 171.678 303.266C178.038 305.646 187.478 307.524 194.16 305.822C194.33 305.761 194.475 305.643 194.57 305.489C194.665 305.335 194.705 305.154 194.683 304.974C194.662 304.794 194.58 304.627 194.451 304.5C194.322 304.373 194.154 304.293 193.974 304.274Z" fill="#ECB83A"/>
<path fill-rule="evenodd" clip-rule="evenodd" d="M189.618 322.454C176.956 321.822 169.642 322.096 157.23 317.274C156.166 316.862 155.328 318.436 156.406 318.874C165.738 322.702 179.89 325.94 189.916 324.098C190.936 323.914 190.498 322.498 189.618 322.454Z" fill="#ECB83A"/>
<path fill-rule="evenodd" clip-rule="evenodd" d="M78.12 293.02C69.65 289.132 64.398 287.166 58.676 279.22C57.952 278.22 56.446 279.35 57.144 280.356C61.52 286.678 69.8 293.784 77.68 294.634C77.8773 294.649 78.0736 294.595 78.2352 294.48C78.3968 294.366 78.5136 294.199 78.5656 294.009C78.6177 293.818 78.6017 293.615 78.5204 293.434C78.439 293.254 78.2975 293.107 78.12 293.02Z" fill="#ECB83A"/>
<path fill-rule="evenodd" clip-rule="evenodd" d="M96.032 282.786C96.16 282.786 98.632 286.32 89.844 282.516C84.3915 280.147 79.3547 276.918 74.926 272.952C74.034 272.152 75.412 270.93 76.346 271.702C83.57 277.668 88.346 278.798 96.102 282.786H96.032Z" fill="#ECB83A"/>
<path fill-rule="evenodd" clip-rule="evenodd" d="M105.682 270.268C102.66 267.97 99.5241 265.78 96.4421 263.556C95.4781 262.86 94.5441 264.46 95.5061 265.156C98.5541 267.328 101.538 269.57 104.604 271.67C105.404 272.224 106.506 270.904 105.682 270.25V270.268Z" fill="#ECB83A"/>
<path fill-rule="evenodd" clip-rule="evenodd" d="M28.5601 226.144C25.3473 220.974 24.0375 214.846 24.8561 208.814C24.9741 207.88 23.5741 207.72 23.2561 208.588C21.1981 214.126 23.8781 222.29 26.9461 227.038C27.5821 228.03 29.2001 227.162 28.5601 226.144Z" fill="#ECB83A"/>
<path fill-rule="evenodd" clip-rule="evenodd" d="M46.23 222.95C43.7473 219.076 41.8754 214.843 40.68 210.4C40.432 209.466 39.26 210.4 39.176 211.21C39.076 213.508 43.428 222.57 44.598 223.81C45.416 224.686 46.924 223.816 46.23 222.95Z" fill="#ECB83A"/>
<path fill-rule="evenodd" clip-rule="evenodd" d="M393.664 135.112C394.52 151.141 392.873 167.206 388.782 182.728C388.728 182.944 388.761 183.173 388.873 183.365C388.986 183.558 389.169 183.698 389.384 183.758C389.599 183.817 389.828 183.79 390.023 183.682C390.218 183.575 390.364 183.395 390.428 183.182C394.106 170.014 397.368 148.752 395.41 134.928C395.41 133.952 393.61 134.072 393.664 135.112Z" fill="#ECB83A"/>
<path fill-rule="evenodd" clip-rule="evenodd" d="M327.03 23.7141C326.21 22.9141 324.764 24.0081 325.612 24.8641C331.749 31.1647 337.271 38.0365 342.102 45.3861C342.636 46.1861 344.004 45.3861 343.608 44.4921C344.102 44.4921 338.238 34.7841 327.03 23.7141Z" fill="#ECB83A"/>
<path fill-rule="evenodd" clip-rule="evenodd" d="M328.2 41.0001C328.76 41.8001 327.574 42.5621 326.922 42.0001C322.658 38.2761 311.842 25.4901 307.522 20.5141C306.856 19.7461 307.944 18.6141 308.656 19.3781C313.238 24.2781 324.864 36.2001 328.2 41.0001Z" fill="#ECB83A"/>
<path fill-rule="evenodd" clip-rule="evenodd" d="M363.08 78.13C363.014 78.0368 362.931 77.9574 362.835 77.8964C362.738 77.8354 362.631 77.7939 362.519 77.7744C362.406 77.7549 362.291 77.7578 362.18 77.7828C362.069 77.8077 361.963 77.8544 361.87 77.92C361.777 77.9857 361.697 78.0691 361.636 78.1654C361.575 78.2618 361.534 78.3692 361.515 78.4816C361.495 78.5939 361.498 78.709 361.523 78.8203C361.548 78.9316 361.594 79.0368 361.66 79.13C367.992 88.93 369.278 95.272 371.198 103.144C371.436 104.124 372.798 103.726 372.83 102.804C373.154 95.49 363.722 78.13 363.08 78.13Z" fill="#ECB83A"/>
<path fill-rule="evenodd" clip-rule="evenodd" d="M354.138 78.3561C353.726 77.2781 351.976 77.7561 352.378 78.8681C353.136 80.9721 356.798 91.9021 357.978 93.5421C358.416 94.1541 359.604 93.9981 359.512 93.1021C359.21 90.2661 355.328 81.4661 354.138 78.3561Z" fill="#ECB83A"/>
<path fill-rule="evenodd" clip-rule="evenodd" d="M380.338 143.2C380.21 142.378 378.686 142 378.762 142.974C378.991 150.251 378.468 157.532 377.202 164.702C377.002 165.852 378.734 165.838 378.99 164.702C380.35 157.612 380.803 150.377 380.338 143.172V143.2Z" fill="#ECB83A"/>
<path fill-rule="evenodd" clip-rule="evenodd" d="M152.504 17.584C148.474 14.846 139.08 15.832 134.606 17.47C133.358 17.926 133.796 19.95 135.076 19.5C144.076 16.328 148.572 19.174 152.022 19.23C152.215 19.2297 152.403 19.167 152.557 19.0511C152.712 18.9352 152.824 18.7725 152.879 18.5873C152.933 18.402 152.926 18.2042 152.858 18.0234C152.791 17.8426 152.666 17.6884 152.504 17.584Z" fill="#ECB83A"/>
<path fill-rule="evenodd" clip-rule="evenodd" d="M277.172 75.73C277.018 74.638 275.526 75.05 275.412 75.958C274.128 86.178 274.592 96.886 273.07 107.678C272.92 108.744 274.77 109.012 274.944 107.948C276.336 99.428 278.338 84 277.172 75.73Z" fill="#ECB83A"/>
<path fill-rule="evenodd" clip-rule="evenodd" d="M216.47 5.35005C215.578 4.55005 214.27 5.79205 215.122 6.67005C233.458 25.5301 239.19 40.0981 244.922 56.6421C245.302 57.7361 247.428 57.1981 247.122 56.0741C241.4 35.0001 228.056 15.6881 216.47 5.35005Z" fill="#ECB83A"/>
</svg>
