<svg width="1000" height="1000" viewBox="0 0 1000 1000" fill="none" xmlns="http://www.w3.org/2000/svg">
<g clip-path="url(#clip0_3_1006)">
<rect width="1000" height="1000" rx="200" fill="white"/>
<path d="M447.333 827.833H426.083V842.417H447.333V827.833Z" fill="#DE8E68"/>
<path d="M586.083 827.833H561.25V842.417H586.083V827.833Z" fill="#DE8E68"/>
<path d="M560.334 497.917C560.917 508.917 586.834 827.833 586.834 827.833H560.334L491.417 588.333C491.417 588.333 509.334 492.5 510.584 492.75C516.5 494.25 548.917 500 560.334 497.917Z" fill="#29263B"/>
<path d="M521.667 495.167L450.25 830.417H424.667C424.667 830.417 422.417 463 424.667 463C448.667 473.167 494 489.833 521.667 495.167Z" fill="#686674"/>
<path d="M578.667 312.667C582.751 314.417 604.584 332.5 613.751 344.417C620.584 339.333 698.584 274.583 700.167 271C703.251 269.25 709.834 279.167 700.167 287.25C706.751 287 745.667 286 745.667 287.25C745.667 288.5 754.084 292.083 696.917 301.25C689.334 310.417 620.667 391.167 609.501 391.167C598.334 391.167 552.834 347 550.917 339.083C549 331.167 578.667 312.667 578.667 312.667Z" fill="#DE8E68"/>
<path d="M519.25 276.75C501.417 293.333 534.084 343.333 543.334 345.5C555.084 348.333 581.917 326.083 587.667 310.667C590.25 303.417 533.917 263.167 519.25 276.75Z" fill="#FCC486"/>
<path d="M487.25 252.583C388.083 252.583 410.583 444 416.917 457.083C423.25 470.167 550.25 508.167 560.25 497.917C570.25 487.667 588.667 252.583 487.25 252.583Z" fill="#FECE85"/>
<path d="M504.333 226.833H474.333V270.417C474.333 276 504.333 276 504.333 270.417V226.833Z" fill="#D37C59"/>
<path d="M489 242.5C507.869 242.5 523.166 216.831 523.166 185.167C523.166 153.502 507.869 127.833 489 127.833C470.13 127.833 454.833 153.502 454.833 185.167C454.833 216.831 470.13 242.5 489 242.5Z" fill="#DE8E68"/>
<path d="M483.333 115C466.083 115 443.25 123.333 426.667 123.333C411.667 123.333 384.417 112.5 370 112.5C360.833 112.5 317.5 116.75 317.5 151.667C317.5 167.417 334.167 182.5 337.5 186.667C340.833 190.833 346.917 214.167 362.5 214.167C384.25 214.167 399.25 198.333 419.167 198.333C432.917 198.333 436.5 201.667 443.333 201.667C448.333 201.667 455.833 199.333 455.833 199.167C455.833 196.583 455.333 175 458.333 171.5C462.5 166.5 515.583 173.917 515.583 156.333C519.333 159.667 522.833 173.833 522.833 176.75C525.25 174.25 534.25 163.417 534.25 151.75C534.167 141.083 526.667 115 483.333 115Z" fill="black"/>
<path d="M444.395 425.386L363.954 431.406L371.933 538.024L452.374 532.004L444.395 425.386Z" fill="#DFDFDF"/>
<path d="M452.811 433.134L372.37 439.154L380.349 545.771L460.79 539.751L452.811 433.134Z" fill="#F2F2F2"/>
<path d="M411.834 545.833C420.624 545.833 427.75 535.797 427.75 523.417C427.75 511.036 420.624 501 411.834 501C403.043 501 395.917 511.036 395.917 523.417C395.917 535.797 403.043 545.833 411.834 545.833Z" fill="#DE8E68"/>
<path d="M401.75 335.417C399.666 340.083 385.916 392.167 388.833 436.667C391.75 481.167 399.333 506.25 399.333 509.75C399.333 513.25 424.833 511.833 424.833 509.75C424.833 507.667 418.25 444.333 419.666 433.083C421.083 421.833 440.166 356.75 439.666 348.75C439.166 340.75 401.75 335.417 401.75 335.417Z" fill="#DE8E68"/>
<path d="M439.167 279.917C416.417 272.667 389.5 324.583 392.084 333.583C395.334 344.917 427.084 357.25 443 354.75C450.5 353.5 457.834 285.917 439.167 279.917Z" fill="#FED892"/>
<path d="M425 839.083V845.5L399.667 893H416.167L449.167 863.083V839.083H425Z" fill="black"/>
<path d="M560.417 838.083V862.167H630.834V852.667L586.167 838.083H560.417Z" fill="black"/>
<path d="M290 361.167C321.434 361.167 346.916 335.684 346.916 304.25C346.916 272.816 321.434 247.333 290 247.333C258.565 247.333 233.083 272.816 233.083 304.25C233.083 335.684 258.565 361.167 290 361.167Z" fill="#DFDFDF"/>
<path d="M370.917 262.917L302.5 276.667L319.25 309.917L370.917 262.917Z" fill="#DFDFDF"/>
<path d="M596.083 176.25L663.416 194.833V157.583L596.083 176.25Z" fill="#DFDFDF"/>
<path d="M291.459 327.718V327.257C291.51 322.365 292.023 318.471 292.996 315.577C293.969 312.682 295.353 310.338 297.146 308.545C298.939 306.752 301.09 305.1 303.601 303.588C305.112 302.666 306.47 301.578 307.674 300.322C308.878 299.042 309.825 297.569 310.517 295.904C311.234 294.239 311.593 292.394 311.593 290.371C311.593 287.861 311.004 285.683 309.825 283.839C308.647 281.995 307.072 280.573 305.099 279.574C303.127 278.575 300.937 278.075 298.529 278.075C296.428 278.075 294.405 278.511 292.458 279.382C290.511 280.253 288.885 281.623 287.578 283.493C286.272 285.363 285.516 287.809 285.311 290.832H275.629C275.834 286.477 276.961 282.75 279.01 279.651C281.085 276.551 283.813 274.182 287.194 272.542C290.601 270.903 294.379 270.083 298.529 270.083C303.037 270.083 306.956 270.98 310.286 272.773C313.642 274.566 316.229 277.025 318.048 280.15C319.892 283.275 320.814 286.836 320.814 290.832C320.814 293.65 320.379 296.198 319.508 298.478C318.663 300.758 317.433 302.794 315.819 304.587C314.231 306.381 312.31 307.969 310.056 309.352C307.802 310.761 305.996 312.246 304.638 313.809C303.281 315.346 302.294 317.177 301.68 319.304C301.065 321.43 300.732 324.081 300.681 327.257V327.718H291.459ZM296.377 350.465C294.482 350.465 292.855 349.786 291.497 348.428C290.14 347.071 289.461 345.444 289.461 343.549C289.461 341.653 290.14 340.027 291.497 338.669C292.855 337.311 294.482 336.632 296.377 336.632C298.273 336.632 299.899 337.311 301.257 338.669C302.615 340.027 303.293 341.653 303.293 343.549C303.293 344.804 302.973 345.957 302.333 347.007C301.718 348.057 300.886 348.902 299.835 349.543C298.811 350.157 297.658 350.465 296.377 350.465Z" fill="white"/>
<path d="M751.75 127.833H621.75V218.333H751.75V127.833Z" fill="#DFDFDF"/>
<path d="M657.333 179.333C660.785 179.333 663.583 176.535 663.583 173.083C663.583 169.631 660.785 166.833 657.333 166.833C653.881 166.833 651.083 169.631 651.083 173.083C651.083 176.535 653.881 179.333 657.333 179.333Z" fill="white"/>
<path d="M686.667 179.333C690.119 179.333 692.917 176.535 692.917 173.083C692.917 169.631 690.119 166.833 686.667 166.833C683.215 166.833 680.417 169.631 680.417 173.083C680.417 176.535 683.215 179.333 686.667 179.333Z" fill="white"/>
<path d="M716.083 179.333C719.535 179.333 722.333 176.535 722.333 173.083C722.333 169.631 719.535 166.833 716.083 166.833C712.631 166.833 709.833 169.631 709.833 173.083C709.833 176.535 712.631 179.333 716.083 179.333Z" fill="white"/>
<path d="M439.25 441.25C439.5 444.083 437.333 446.5 434.5 446.75C431.667 447 429.25 444.833 429 442L427.75 425.083C427.5 422.25 429.667 419.833 432.5 419.583C435.333 419.333 437.75 421.5 438 424.333L438.667 433.333" stroke="black" stroke-width="2.5" stroke-miterlimit="10" stroke-linecap="round" stroke-linejoin="round"/>
</g>
<defs>
<clipPath id="clip0_3_1006">
<rect width="1000" height="1000" rx="200" fill="white"/>
</clipPath>
</defs>
</svg>
