<svg width="1000" height="1000" viewBox="0 0 1000 1000" fill="none" xmlns="http://www.w3.org/2000/svg">
<rect width="1000" height="1000" rx="200" fill="white"/>
<g clip-path="url(#clip0_3_1027)">
<path d="M636.47 317.728C691.424 369.734 739.471 418.976 793.647 488.976C847.823 558.976 907.945 649.749 879.445 703.938C850.975 757.921 733.739 775.328 648.728 780.282C563.907 785.428 511.121 778.106 463.257 771.587C415.218 765.258 371.72 759.715 311.613 746.668C251.316 733.613 174.41 713.076 135.301 663.453C96.3752 613.829 94.9708 535.111 131.149 482.517C167.327 429.924 240.859 403.157 301.752 353.121C362.446 303.093 410.493 229.329 465.257 220.038C520.211 210.74 581.706 265.715 636.47 317.728Z" fill="#F2F2F2"/>
<path d="M110.824 471.982C136.401 500.71 235.067 561.785 247.6 570.664C260.132 579.543 464.242 717.062 480.942 723.635C576.479 719.482 619.282 645.336 619.282 626.54C619.282 607.745 517.365 473.906 473.073 468.882C465.166 467.989 372.865 496.366 372.865 496.366L169.183 323.981C144.568 303.849 110.824 277.342 110.824 277.342V472.02" fill="#FFA775"/>
<path d="M672.226 440.728L629.433 465.44L733.205 645.223L775.998 620.51L672.226 440.728Z" fill="#FED892"/>
<path d="M741.624 623.907C749.127 623.907 755.21 617.822 755.21 610.317C755.21 602.812 749.127 596.728 741.624 596.728C734.121 596.728 728.038 602.812 728.038 610.317C728.038 617.822 734.121 623.907 741.624 623.907Z" fill="#FD8369"/>
<path d="M634.287 473.852C629.204 476.86 599.559 491.694 589.675 490.457C579.79 489.22 535.316 473.157 521.745 478.097C508.174 483.036 443.893 511.459 443.893 511.459C443.893 511.459 385.832 573.237 384.603 574.481C383.374 575.726 384.527 585.33 386.298 586.864C388.068 588.399 408.02 594.422 411.325 592.415C414.63 590.407 459.257 556.159 467.287 556.159C475.316 556.159 551.916 611.226 597.544 659.834C608.069 655.253 705.209 596.728 705.209 596.728L634.287 473.852Z" fill="#C16F49"/>
<path d="M327.031 622.044C327.031 622.044 323.062 644.458 331.847 657.223C340.632 669.988 408.997 715.092 418.637 716.512C428.277 717.932 445.862 704.297 447.847 696.663C449.831 689.028 437.07 660.918 433.383 656.964C429.696 653.009 376.948 616.089 371.269 615.226C365.591 614.364 335.824 616.654 327.031 622.044Z" fill="#C16F49"/>
<path d="M333.702 659.834L371.476 631.197" stroke="#5B5B5B" stroke-width="1.62" stroke-linecap="round" stroke-linejoin="round"/>
<path d="M363.347 683.837L401.128 655.2" stroke="#5B5B5B" stroke-width="1.62" stroke-linecap="round" stroke-linejoin="round"/>
<path d="M392.267 702.495L420.98 680.737" stroke="#5B5B5B" stroke-width="1.62" stroke-linecap="round" stroke-linejoin="round"/>
<path d="M576.043 688.982L468.569 601.614" stroke="#5B5B5B" stroke-width="1.62" stroke-linecap="round" stroke-linejoin="round"/>
<path d="M536.072 711.229L467.905 655.818" stroke="#5B5B5B" stroke-width="1.62" stroke-linecap="round" stroke-linejoin="round"/>
<path d="M501.992 723.032L445.9 677.439" stroke="#5B5B5B" stroke-width="1.62" stroke-linecap="round" stroke-linejoin="round"/>
<path d="M282.244 494.38L241.884 459.865C234.278 453.36 222.84 454.254 216.337 461.862L176.464 508.51C169.961 516.118 170.855 527.559 178.461 534.063L218.82 568.578C226.427 575.083 237.864 574.189 244.368 566.581L284.241 519.933C290.744 512.325 289.85 500.885 282.244 494.38Z" fill="#5B5B5B"/>
<path d="M319.522 449.4L282.005 417.316L244.111 461.648L281.627 493.733L319.522 449.4Z" fill="#29263B"/>
<path d="M277.87 734.117C286.317 734.117 293.165 727.267 293.165 718.818C293.165 710.368 286.317 703.518 277.87 703.518C269.422 703.518 262.574 710.368 262.574 718.818C262.574 727.267 269.422 734.117 277.87 734.117Z" stroke="#5FC5D1" stroke-width="8.09" stroke-miterlimit="10"/>
<path d="M668.039 707.167C674.176 707.167 679.152 702.191 679.152 696.052C679.152 689.913 674.176 684.936 668.039 684.936C661.901 684.936 656.926 689.913 656.926 696.052C656.926 702.191 661.901 707.167 668.039 707.167Z" stroke="#5FC5D1" stroke-width="8.09" stroke-miterlimit="10"/>
<path d="M592.346 448.75C598.484 448.75 603.459 443.773 603.459 437.634C603.459 431.495 598.484 426.519 592.346 426.519C586.209 426.519 581.233 431.495 581.233 437.634C581.233 443.773 586.209 448.75 592.346 448.75Z" stroke="#5FC5D1" stroke-width="8.09" stroke-miterlimit="10"/>
<path d="M543.918 299.482H352.203V375.597H543.918V299.482Z" fill="#FED385"/>
<path d="M497.184 403.325L511.877 372.429H482.491L497.184 403.325Z" fill="#FED385"/>
<path d="M378.238 318.858H517.876" stroke="#FD8369" stroke-width="3.24" stroke-linecap="round" stroke-linejoin="round"/>
<path d="M378.238 337.54H517.876" stroke="#FD8369" stroke-width="3.24" stroke-linecap="round" stroke-linejoin="round"/>
<path d="M378.238 356.213H517.876" stroke="#FD8369" stroke-width="3.24" stroke-linecap="round" stroke-linejoin="round"/>
<path d="M894.969 307.261L881.124 315.606C881.124 315.606 722.077 411.838 672.221 440.726L755.217 584.505L894.969 510.329V307.261Z" fill="#29263B"/>
</g>
<defs>
<clipPath id="clip0_3_1027">
<rect width="790" height="563" fill="white" transform="translate(105 219)"/>
</clipPath>
</defs>
</svg>
